# xmcd
#
# Track frame offsets:
#	150
#	18390
#	34422
#	52172
#	71625
#	89335
#	109150
#	125827
#	146250
#	163592
#	182217
#	199970
#	217585
#	237427
#	257985
#	281590
#
# Disc length: 4042 seconds
#
# Revision: 0
# Processed by: cddbd v1.4PL0 Copyright (c) Steve Scherf et al.
# Submitted via: EasyCDDAExtractor 5.0.2.1
#
DISCID=f60fc810
DTITLE=孫耀威 - Happenings
DYEAR=1995
DGENRE=Blues
TTITLE0=開蓬車上等你的人
TTITLE1=不必為我留下
TTITLE2=愛自那天遇上
TTITLE3=肩膊
TTITLE4=不能傳達的思念
TTITLE5=月老
TTITLE6=留住夏季的風
TTITLE7=如果變成一對
TTITLE8=為愛狂奔
TTITLE9=難道你沒有掛念我
TTITLE10=愛的故事(上集)
TTITLE11=Lonely Girl
TTITLE12=仍然喜歡你
TTITLE13=I Will Be There For You
TTITLE14=我知道你在等我
TTITLE15=留下來好嗎
EXTD=
EXTT0=
EXTT1=
EXTT2=
EXTT3=
EXTT4=
EXTT5=
EXTT6=
EXTT7=
EXTT8=
EXTT9=
EXTT10=
EXTT11=
EXTT12=
EXTT13=
EXTT14=
EXTT15=
PLAYORDER=
